<svg width="374" height="374" viewBox="0 0 374 374" fill="none" xmlns="http://www.w3.org/2000/svg">
<path fill-rule="evenodd" clip-rule="evenodd" d="M77.701 119.813C94.3127 85.8958 125.071 70.7586 162.574 66.8793C198.911 63.1208 240.609 82.67 266.613 108.289C291.196 132.507 318.219 157.655 318.047 192.225C317.863 229.299 296.632 263.666 265.738 284.17C235.331 304.35 196.75 307.673 162.418 295.513C129.781 283.953 98.1984 270.692 85.8187 238.322C73.571 206.297 62.5964 150.653 77.701 119.813Z" fill="url(#paint0_linear_148104_38)"/>
<line x1="1.5" y1="-1.5" x2="31.4099" y2="-1.5" transform="matrix(-0.0289191 0.998882 1.00028 0.0287937 195.028 283.028)" stroke="#FF6B0A" stroke-width="3" stroke-linecap="round"/>
<path d="M178.329 322.583L194.354 313.876" stroke="#FF6B0A" stroke-width="3" stroke-linecap="round"/>
<path d="M188.118 324.168L195.028 314.306" stroke="#FF6B0A" stroke-width="3" stroke-linecap="round"/>
<path d="M174.025 315.738L192.726 313.657" stroke="#FF6B0A" stroke-width="3" stroke-linecap="round"/>
<path d="M141.38 251.692C152.271 292.76 196.438 348.187 285.972 241.354C233.202 218.004 130.404 187.383 141.38 251.692Z" fill="url(#paint1_linear_148104_38)"/>
<path d="M181.203 160.598C189.5 140.742 177.746 133.021 170.832 131.642C165.646 135.089 147.185 141.983 156.312 141.983C165.439 141.983 162.88 154.393 160.46 160.598C115.656 220.994 141.792 254.708 155.275 264.015C170.832 257.81 196.76 243.539 176.018 236.093C150.089 226.785 170.832 185.418 181.203 160.598Z" fill="url(#paint2_linear_148104_38)"/>
<ellipse cx="10.0413" cy="29.1374" rx="10.0413" ry="29.1374" transform="matrix(-0.00906133 0.999959 0.999959 0.00900941 166.868 281.811)" fill="url(#paint3_radial_148104_38)"/>
<path d="M210.342 294.32L210.343 318.635" stroke="#FF6B0A" stroke-width="3" stroke-linecap="round"/>
<path d="M193.741 327.434L209.767 318.726" stroke="#FF6B0A" stroke-width="3" stroke-linecap="round"/>
<path d="M203.53 329.018L210.44 319.156" stroke="#FF6B0A" stroke-width="3" stroke-linecap="round"/>
<path d="M189.437 320.588L208.138 318.507" stroke="#FF6B0A" stroke-width="3" stroke-linecap="round"/>
<path d="M210.873 183.441C147.196 203.951 160.374 224.652 174.922 232.439C179.118 239.226 192.306 230.118 198.376 224.715C198.487 221.459 200.589 213.76 208.11 209.016C215.631 204.271 213.463 202.295 211.439 201.899C221.974 193.089 216.193 193.674 211.985 195.067C245.708 176.842 222.745 179.367 210.873 183.441Z" fill="#D9D9D9"/>
<path d="M213.187 184.58C148.696 206.495 162.568 227.015 177.565 234.536C181.986 241.266 195.24 231.846 201.314 226.294C201.359 223.021 203.341 215.245 210.909 210.324C218.477 205.404 216.225 203.463 214.153 203.108C224.708 194.041 218.826 194.748 214.566 196.234C242.306 176.502 225.205 180.243 213.187 184.58Z" fill="#FAFAFA"/>
<path d="M145.172 156.89C164.665 167.608 173.713 161.356 175.801 156.89C190.033 148.451 186.731 119.65 162.365 119.65C137.999 119.65 120.805 143.493 145.172 156.89Z" fill="white"/>
<path d="M158.518 149.021L155.422 147.033C149.847 143.453 143.13 142.093 136.597 143.222C136.227 143.285 135.929 143.562 135.839 143.927L129.554 169.308C129.097 171.153 131.23 172.533 132.727 171.362L158.615 151.113C159.311 150.568 159.262 149.499 158.518 149.021Z" fill="#DF5B04"/>
<path d="M159.069 148.872L156.536 147.301C150.537 143.581 143.395 142.149 136.422 143.27C136.148 143.314 135.904 143.464 135.741 143.688L120.102 165.142C118.885 166.812 120.688 169.004 122.561 168.132L158.927 151.213C159.889 150.766 159.969 149.43 159.069 148.872Z" fill="#FF6B0A"/>
<ellipse cx="136.633" cy="136.681" rx="2.50496" ry="2.49777" fill="#797979"/>
<ellipse cx="162.365" cy="139.178" rx="2.50496" ry="2.49777" fill="#797979"/>
<path d="M144.212 105.485L144.779 102.502L180.545 109.265L177.468 125.444L176.211 125.206L146.383 121.455L141.702 118.681L143.841 107.435L143.665 107.425L143.692 105.482L144.212 105.485Z" fill="#373500"/>
<ellipse cx="18.7218" cy="1.85571" rx="18.7218" ry="1.85571" transform="matrix(0.982589 0.185796 -0.186829 0.982393 144.03 103.664)" fill="#0C0632"/>
<path d="M141.279 118.655C129.093 119.355 117.527 135.08 168.359 126.78L141.279 118.655Z" fill="#373500"/>
<path d="M141.195 118.523C143.091 124.151 173.843 129.666 177.999 125.482L180.438 112.472C175.014 113.203 165.366 108.322 157.025 109.748L146.369 119.201L143.691 105.482L141.195 118.523Z" fill="#494600"/>
<ellipse cx="18.1957" cy="1.85571" rx="18.1957" ry="1.85571" transform="matrix(0.982589 0.185796 -0.186829 0.982393 145.083 100.907)" fill="#373500"/>
<ellipse cx="18.4517" cy="1.85571" rx="18.4517" ry="1.85571" transform="matrix(0.982589 0.185796 -0.186829 0.982393 144.561 103.764)" fill="#373500"/>
<path d="M148.143 107.569C148.197 107.637 148.243 107.691 148.28 107.749C148.598 108.223 148.725 108.686 148.632 109.243C148.593 109.479 148.526 109.713 148.472 109.943C148.423 110.147 148.376 110.347 148.331 110.552C148.321 110.606 148.305 110.625 148.244 110.611C148.116 110.578 147.989 110.598 147.894 110.699C147.809 110.788 147.791 110.896 147.825 111.007C147.859 111.121 147.945 111.192 148.053 111.235C148.108 111.255 148.153 111.246 148.2 111.206C148.569 110.904 148.853 110.538 149.067 110.115C149.243 109.764 149.345 109.387 149.461 109.019C149.528 108.809 149.604 108.599 149.663 108.387C149.703 108.253 149.751 108.131 149.829 108.016C149.908 107.901 150.008 107.805 150.138 107.733C150.198 107.865 150.218 108.003 150.198 108.139C150.177 108.267 150.139 108.397 150.1 108.518C150.056 108.65 149.995 108.775 149.945 108.901C149.813 109.235 149.677 109.567 149.556 109.905C149.358 110.468 149.311 111.046 149.427 111.632C149.441 111.71 149.485 111.747 149.558 111.764C149.739 111.813 149.919 111.725 149.977 111.562C150.032 111.41 149.946 111.223 149.777 111.155C149.716 111.129 149.72 111.106 149.745 111.057C149.874 110.804 149.999 110.546 150.124 110.292C150.269 110.003 150.395 109.709 150.621 109.47C150.92 109.155 151.252 108.991 151.68 108.894C151.711 108.888 151.741 108.883 151.786 108.874C151.774 108.907 151.766 108.929 151.758 108.95C151.254 110.355 150.77 111.702 150.266 113.107C150.237 113.187 150.237 113.187 150.16 113.159C149.871 113.056 149.578 112.951 149.288 112.848C149.237 112.829 149.21 112.836 149.181 112.883C148.958 113.238 148.646 113.486 148.241 113.612C148.157 113.639 148.075 113.684 147.992 113.72C147.894 113.472 147.711 113.259 147.651 112.988C147.603 112.766 147.58 112.541 147.615 112.316C147.621 112.265 147.605 112.242 147.561 112.227C147.264 112.121 146.971 112.016 146.674 111.91C146.623 111.892 146.605 111.873 146.626 111.815C147.133 110.403 147.621 109.045 148.128 107.633C148.123 107.624 148.128 107.609 148.143 107.569ZM148.233 108.33C148.224 108.331 148.213 108.327 148.205 108.328C148.195 108.354 148.186 108.379 148.177 108.405C147.933 109.083 147.709 109.708 147.465 110.387C147.425 110.499 147.425 110.499 147.542 110.541C147.586 110.557 147.612 110.554 147.639 110.514C147.731 110.395 147.855 110.325 148 110.303C148.061 110.292 148.08 110.262 148.091 110.209C148.148 109.946 148.203 109.679 148.271 109.421C148.339 109.15 148.351 108.934 148.301 108.658C148.284 108.545 148.255 108.441 148.233 108.33ZM151.247 109.419C151.24 109.416 151.237 109.411 151.23 109.409C151.198 109.43 151.165 109.451 151.137 109.474C150.916 109.641 150.737 109.769 150.608 110.014C150.447 110.325 150.293 110.639 150.135 110.951C150.112 110.992 150.113 111.025 150.147 111.066C150.243 111.178 150.296 111.307 150.296 111.459C150.295 111.528 150.33 111.557 150.432 111.573C150.495 111.583 150.488 111.532 150.5 111.499C150.748 110.809 150.976 110.174 151.225 109.481C151.236 109.46 151.244 109.438 151.247 109.419ZM147.895 111.515C147.878 111.504 147.857 111.493 147.834 111.477C147.622 111.343 147.483 111.167 147.494 110.905C147.495 110.868 147.485 110.848 147.451 110.84C147.426 110.831 147.4 110.822 147.374 110.813C147.338 110.8 147.318 110.809 147.305 110.845C147.207 111.117 147.108 111.393 147.014 111.667C147.009 111.681 147.026 111.725 147.041 111.73C147.237 111.804 147.439 111.876 147.638 111.943C147.652 111.948 147.691 111.933 147.7 111.92C147.764 111.787 147.828 111.655 147.895 111.515ZM149.463 112.075C149.425 112.225 149.394 112.369 149.358 112.516C149.347 112.557 149.376 112.568 149.406 112.578C149.593 112.645 149.777 112.707 149.962 112.777C150.021 112.798 150.047 112.783 150.063 112.727C150.147 112.483 150.238 112.241 150.326 111.994C150.367 111.881 150.367 111.881 150.253 111.841C150.22 111.829 150.191 111.819 150.166 111.855C150.023 112.045 149.824 112.105 149.596 112.094C149.548 112.089 149.503 112.077 149.463 112.075ZM149.054 110.774C148.851 111.016 148.651 111.252 148.402 111.45C148.488 111.567 148.568 111.677 148.653 111.785C148.664 111.802 148.703 111.807 148.725 111.803C148.841 111.779 148.953 111.745 149.069 111.721C149.105 111.713 149.119 111.698 149.112 111.659C149.056 111.389 149.051 111.116 149.059 110.841C149.054 110.819 149.055 110.794 149.054 110.774ZM147.946 112.373C147.864 112.556 147.93 113.006 148.034 113.096C148.039 113.094 148.044 113.091 148.044 113.091C148.111 112.903 148.183 112.715 148.246 112.529C148.251 112.514 148.233 112.483 148.22 112.474C148.131 112.434 148.038 112.405 147.946 112.373ZM148.339 113.213C148.529 113.179 148.852 112.856 148.878 112.701C148.797 112.672 148.71 112.641 148.629 112.612C148.581 112.595 148.56 112.608 148.545 112.652C148.49 112.804 148.435 112.957 148.38 113.109C148.365 113.14 148.353 113.173 148.339 113.213ZM148.178 112.132C148.225 112.149 148.275 112.171 148.325 112.18C148.34 112.186 148.38 112.167 148.38 112.155C148.415 111.987 148.362 111.813 148.222 111.721C148.191 111.702 148.17 111.703 148.151 111.733C148.101 111.826 148.055 111.92 148.004 112.016C147.987 112.051 148.004 112.074 148.037 112.086C148.082 112.098 148.13 112.115 148.178 112.132ZM148.852 112.372C148.896 112.388 148.936 112.402 148.98 112.418C149.022 112.437 149.055 112.428 149.064 112.379C149.086 112.284 149.107 112.189 149.125 112.093C149.134 112.047 149.116 112.028 149.066 112.027C148.913 112.017 148.735 112.122 148.68 112.262C148.675 112.277 148.692 112.311 148.705 112.32C148.755 112.342 148.804 112.355 148.852 112.372Z" fill="#FFD500"/>
<ellipse cx="9.28619" cy="10.1313" rx="9.28619" ry="10.1313" transform="matrix(0.762671 0.646786 -0.648947 0.760834 169.821 136.681)" fill="url(#paint4_radial_148104_38)"/>
<ellipse cx="39.3014" cy="53.8619" rx="39.3014" ry="53.8619" transform="matrix(0.65015 -0.759806 0.761647 0.647992 168.391 168.528)" fill="#C4C4C4"/>
<ellipse cx="34.456" cy="53.8619" rx="34.456" ry="53.8619" transform="matrix(0.65015 -0.759806 0.761647 0.647992 174.691 161.165)" fill="white"/>
<path d="M225.014 171.181L257.91 144.295L239.035 180.86C229.113 182.151 225.553 174.945 225.014 171.181Z" fill="#C4C4C4"/>
<ellipse cx="9.13681" cy="12.5218" rx="9.13681" ry="12.5218" transform="matrix(0.65015 -0.759806 0.761647 0.647992 242.81 143.123)" fill="#C4C4C4"/>
<ellipse cx="8.01036" cy="12.5218" rx="8.01036" ry="12.5218" transform="matrix(0.65015 -0.759806 0.761647 0.647992 244.275 141.412)" fill="white"/>
<path d="M255.753 143.566L265.459 135.692L259.89 146.401C256.962 146.779 255.912 144.669 255.753 143.566Z" fill="#C4C4C4"/>
<path d="M237.837 194.195C174.16 214.705 187.337 235.406 201.886 243.193C206.082 249.98 219.27 240.872 225.339 235.47C225.45 232.213 227.553 224.514 235.074 219.77C242.595 215.026 240.427 213.049 238.403 212.654C248.938 203.844 243.156 204.428 238.949 205.822C272.671 187.596 249.709 190.122 237.837 194.195Z" fill="#D9D9D9"/>
<path d="M240.151 195.334C175.66 217.249 189.531 237.77 204.528 245.291C208.949 252.021 222.203 242.6 228.278 237.049C228.323 233.776 230.304 225.999 237.872 221.079C245.44 216.158 243.188 214.218 241.116 213.862C251.672 204.796 245.79 205.502 241.529 206.989C269.27 187.257 252.169 190.997 240.151 195.334Z" fill="#F8F8F8"/>
<defs>
<linearGradient id="paint0_linear_148104_38" x1="76.0455" y1="122.217" x2="299.48" y2="251.217" gradientUnits="userSpaceOnUse">
<stop stop-color="#CCB0FF"/>
<stop offset="1" stop-color="#5B0086"/>
</linearGradient>
<linearGradient id="paint1_linear_148104_38" x1="173.999" y1="256.239" x2="289.925" y2="238.678" gradientUnits="userSpaceOnUse">
<stop stop-color="#F2F2F2"/>
<stop offset="1" stop-color="white"/>
</linearGradient>
<linearGradient id="paint2_linear_148104_38" x1="159.706" y1="131.642" x2="159.706" y2="264.015" gradientUnits="userSpaceOnUse">
<stop stop-color="white"/>
<stop offset="1" stop-color="#F2F2F2"/>
</linearGradient>
<radialGradient id="paint3_radial_148104_38" cx="0" cy="0" r="1" gradientUnits="userSpaceOnUse" gradientTransform="translate(10.0413 29.1374) rotate(90) scale(29.1374 10.0413)">
<stop stop-color="#D7D7D7"/>
<stop offset="1" stop-color="#D7D7D7" stop-opacity="0"/>
</radialGradient>
<radialGradient id="paint4_radial_148104_38" cx="0" cy="0" r="1" gradientUnits="userSpaceOnUse" gradientTransform="translate(9.28619 10.1313) rotate(90) scale(10.1313 9.28619)">
<stop stop-color="#FFBBBB"/>
<stop offset="1" stop-color="#FFBBBB" stop-opacity="0"/>
</radialGradient>
</defs>
</svg>
