<svg width="374" height="374" viewBox="0 0 374 374" fill="none" xmlns="http://www.w3.org/2000/svg">
<path fill-rule="evenodd" clip-rule="evenodd" d="M184.348 304.243C146.037 296.044 105.317 278.196 92.0336 241.308C79.163 205.567 105.151 170.642 124.449 137.907C142.692 106.962 161.261 73.3168 196.119 64.7506C233.501 55.564 273.419 68.3136 301.793 94.3255C329.719 119.927 342.712 158.044 339.051 195.785C335.569 231.664 313.058 261.612 283.555 282.296C254.365 302.76 219.183 311.698 184.348 304.243Z" fill="url(#paint0_linear_148104_93)"/>
<path d="M158.826 314.453C95.0384 314.453 124.565 233.66 189.993 237.178C239.953 270.723 217.591 314.453 158.826 314.453Z" fill="#F5F5F5"/>
<path d="M176.221 167.144C168.493 148.685 179.441 141.507 185.88 140.225C190.71 143.43 207.904 149.839 199.404 149.839C190.903 149.839 193.286 161.376 195.54 167.144C237.27 223.291 212.927 254.633 200.37 263.285C185.88 257.517 161.731 244.249 181.05 237.327C205.2 228.674 185.88 190.218 176.221 167.144Z" fill="url(#paint1_linear_148104_93)"/>
<path d="M255.827 171.667C286.574 289.782 252.929 311.054 227.509 288.907C213.481 284.28 219.715 289.78 221.868 277.185C226.564 275.729 220.963 201.219 220.756 186.368C220.549 171.517 225.541 174.501 228.063 177.849C230.965 156.206 235.641 166.435 237.616 174.254C239.312 119.103 250.463 149.55 255.827 171.667Z" fill="#C4C4C4"/>
<path d="M254.581 172.428C285.328 290.543 251.683 311.815 226.263 289.667C212.235 285.041 218.468 290.54 220.622 277.945C225.318 276.489 219.717 201.98 219.51 187.128C219.303 172.277 224.295 175.261 226.816 178.609C229.718 156.967 234.394 167.195 236.369 175.014C238.066 119.863 249.217 150.31 254.581 172.428Z" fill="url(#paint2_linear_148104_93)"/>
<path d="M229.197 177.027C201.802 192.061 189.086 183.291 186.153 177.027C166.151 165.19 170.792 124.79 205.034 124.79C239.277 124.79 263.439 158.234 229.197 177.027Z" fill="white"/>
<path d="M211.555 168.615L214.012 166.195C219.421 160.869 227.227 157.258 236.305 155.884C236.927 155.79 237.623 156.002 238.065 156.421L260.415 177.598C261.797 178.908 260.553 180.578 258.495 180.173L213.075 171.236C211.495 170.925 210.665 169.492 211.555 168.615Z" fill="#DF5B04"/>
<rect x="241.684" y="139.991" width="15.0679" height="21.9953" fill="#010101"/>
<ellipse cx="11.0498" cy="10.9976" rx="11.0498" ry="10.9976" transform="matrix(-1 0 0 1 252.733 139.991)" fill="#010101"/>
<ellipse cx="11.0498" cy="10.9976" rx="11.0498" ry="10.9976" transform="matrix(-1 0 0 1 267.801 139.991)" fill="#222222"/>
<ellipse cx="8.0362" cy="7.99829" rx="8.0362" ry="7.99829" transform="matrix(-1 0 0 1 264.788 142.99)" fill="#FE00B7"/>
<ellipse opacity="0.29" cx="7.03167" cy="6.9985" rx="7.03167" ry="6.9985" transform="matrix(-1 8.70103e-08 8.78372e-08 1 263.783 143.99)" fill="white"/>
<ellipse cx="2.50566" cy="3.80546" rx="2.50566" ry="3.80546" transform="matrix(-0.708777 0.705433 0.708777 0.705433 258.294 143.99)" fill="white"/>
<path d="M210.94 168.526L212.644 166.903C218.57 161.258 226.949 157.401 236.661 155.848C237.091 155.78 237.567 155.842 237.991 156.024L270.819 170.067C272.97 170.987 272.517 173.301 270.2 173.222L212.947 171.279C211.105 171.216 209.88 169.536 210.94 168.526Z" fill="#FF6B0A"/>
<rect x="213.557" y="140.99" width="15.0679" height="21.9953" fill="#010101"/>
<ellipse cx="11.0498" cy="10.9976" rx="11.0498" ry="10.9976" transform="matrix(-1 0 0 1 224.607 140.99)" fill="#010101"/>
<ellipse cx="11.0498" cy="10.9976" rx="11.0498" ry="10.9976" transform="matrix(-1 0 0 1 239.675 140.99)" fill="#222222"/>
<ellipse cx="8.0362" cy="7.99829" rx="8.0362" ry="7.99829" transform="matrix(-1 0 0 1 236.661 143.99)" fill="#FE00B7"/>
<ellipse opacity="0.29" cx="7.03167" cy="6.9985" rx="7.03167" ry="6.9985" transform="matrix(-1 8.70103e-08 8.78372e-08 1 235.656 144.989)" fill="white"/>
<ellipse cx="2.50566" cy="3.80546" rx="2.50566" ry="3.80546" transform="matrix(-0.708777 0.705433 0.708777 0.705433 230.167 144.989)" fill="white"/>
<path d="M230.546 104.92L229.748 100.735L179.485 110.221L183.809 132.917L185.576 132.583L227.494 127.321L234.072 123.43L231.067 107.655L231.314 107.641L231.277 104.915L230.546 104.92Z" fill="#373500"/>
<ellipse cx="26.3087" cy="2.60323" rx="26.3087" ry="2.60323" transform="matrix(-0.982651 0.185463 0.187164 0.982329 230.801 102.364)" fill="#0C0632"/>
<path d="M234.667 123.393C251.792 124.376 268.047 146.433 196.611 134.791L234.667 123.393Z" fill="#373500"/>
<path d="M234.785 123.208C232.12 131.103 188.904 138.838 183.062 132.97L179.636 114.72C187.258 115.745 200.816 108.898 212.539 110.899L227.514 124.159L231.277 104.915L234.785 123.208Z" fill="#494600"/>
<ellipse cx="25.5694" cy="2.60323" rx="25.5694" ry="2.60323" transform="matrix(-0.982651 0.185463 0.187164 0.982329 229.322 98.4972)" fill="#373500"/>
<ellipse cx="25.9292" cy="2.60323" rx="25.9292" ry="2.60323" transform="matrix(-0.982651 0.185463 0.187164 0.982329 230.055 102.505)" fill="#373500"/>
<path d="M225.022 107.843C224.946 107.939 224.88 108.014 224.828 108.096C224.382 108.76 224.203 109.41 224.333 110.191C224.388 110.521 224.483 110.85 224.559 111.173C224.627 111.459 224.693 111.74 224.756 112.028C224.771 112.103 224.793 112.13 224.879 112.11C225.059 112.063 225.238 112.091 225.37 112.234C225.491 112.358 225.516 112.509 225.467 112.665C225.421 112.825 225.3 112.925 225.147 112.986C225.07 113.013 225.008 113.001 224.941 112.944C224.422 112.52 224.023 112.008 223.722 111.414C223.475 110.922 223.331 110.393 223.169 109.876C223.075 109.582 222.968 109.287 222.885 108.989C222.829 108.802 222.761 108.631 222.651 108.469C222.541 108.308 222.4 108.174 222.218 108.072C222.133 108.258 222.105 108.452 222.133 108.643C222.162 108.822 222.216 109.004 222.271 109.174C222.332 109.359 222.419 109.535 222.488 109.711C222.674 110.179 222.865 110.645 223.035 111.119C223.314 111.91 223.379 112.72 223.216 113.542C223.197 113.652 223.135 113.703 223.033 113.728C222.779 113.795 222.526 113.673 222.443 113.444C222.366 113.23 222.487 112.969 222.725 112.872C222.811 112.836 222.805 112.804 222.769 112.736C222.589 112.381 222.412 112.019 222.237 111.662C222.034 111.257 221.856 110.844 221.538 110.509C221.118 110.067 220.652 109.837 220.051 109.701C220.007 109.693 219.964 109.686 219.902 109.674C219.918 109.719 219.929 109.75 219.94 109.78C220.649 111.751 221.329 113.64 222.038 115.61C222.078 115.723 222.078 115.723 222.186 115.684C222.593 115.539 223.005 115.392 223.411 115.247C223.484 115.222 223.522 115.231 223.563 115.297C223.875 115.794 224.315 116.143 224.883 116.32C225.002 116.358 225.117 116.42 225.234 116.47C225.37 116.123 225.629 115.824 225.712 115.444C225.78 115.132 225.812 114.817 225.762 114.501C225.754 114.43 225.778 114.398 225.839 114.376C226.256 114.227 226.668 114.081 227.085 113.932C227.157 113.906 227.183 113.88 227.153 113.799C226.44 111.818 225.755 109.914 225.042 107.933C225.049 107.919 225.042 107.899 225.022 107.843ZM224.895 108.911C224.907 108.912 224.922 108.906 224.934 108.908C224.947 108.944 224.96 108.979 224.973 109.015C225.316 109.967 225.631 110.843 225.973 111.795C226.03 111.953 226.03 111.953 225.865 112.011C225.804 112.033 225.767 112.029 225.73 111.974C225.6 111.807 225.425 111.709 225.223 111.678C225.136 111.663 225.109 111.62 225.094 111.545C225.014 111.178 224.937 110.803 224.841 110.44C224.745 110.061 224.729 109.757 224.799 109.37C224.823 109.212 224.863 109.065 224.895 108.911ZM220.659 110.438C220.669 110.434 220.672 110.427 220.683 110.423C220.728 110.453 220.774 110.483 220.814 110.514C221.125 110.748 221.376 110.929 221.557 111.272C221.784 111.708 222 112.148 222.222 112.586C222.254 112.644 222.253 112.69 222.204 112.748C222.069 112.905 221.995 113.087 221.996 113.299C221.996 113.396 221.947 113.437 221.804 113.459C221.716 113.473 221.725 113.401 221.708 113.355C221.36 112.388 221.04 111.497 220.69 110.524C220.674 110.496 220.663 110.465 220.659 110.438ZM225.37 113.377C225.393 113.363 225.423 113.347 225.455 113.324C225.754 113.137 225.949 112.889 225.933 112.522C225.932 112.47 225.945 112.443 225.993 112.431C226.029 112.418 226.065 112.406 226.101 112.393C226.153 112.374 226.181 112.387 226.199 112.438C226.336 112.82 226.476 113.207 226.608 113.591C226.615 113.611 226.591 113.672 226.57 113.679C226.294 113.783 226.011 113.884 225.731 113.978C225.71 113.985 225.656 113.965 225.644 113.946C225.554 113.76 225.463 113.574 225.37 113.377ZM223.166 114.163C223.219 114.374 223.263 114.576 223.314 114.782C223.329 114.84 223.288 114.855 223.246 114.869C222.984 114.963 222.725 115.05 222.464 115.148C222.382 115.178 222.345 115.156 222.323 115.078C222.205 114.735 222.077 114.396 221.953 114.05C221.896 113.892 221.896 113.892 222.055 113.835C222.102 113.818 222.143 113.804 222.178 113.854C222.379 114.122 222.659 114.206 222.979 114.189C223.046 114.183 223.109 114.166 223.166 114.163ZM223.741 112.338C224.026 112.679 224.308 113.009 224.657 113.287C224.536 113.45 224.424 113.605 224.304 113.757C224.289 113.78 224.234 113.788 224.203 113.782C224.039 113.748 223.883 113.7 223.72 113.667C223.669 113.656 223.65 113.634 223.659 113.579C223.738 113.201 223.746 112.819 223.734 112.432C223.741 112.401 223.74 112.367 223.741 112.338ZM225.297 114.581C225.413 114.838 225.321 115.469 225.175 115.595C225.168 115.592 225.161 115.589 225.161 115.589C225.065 115.324 224.965 115.061 224.877 114.8C224.869 114.779 224.894 114.736 224.913 114.724C225.038 114.667 225.169 114.627 225.297 114.581ZM224.746 115.76C224.479 115.711 224.025 115.258 223.988 115.042C224.101 115.001 224.225 114.957 224.338 114.917C224.405 114.893 224.435 114.911 224.457 114.972C224.534 115.186 224.611 115.4 224.688 115.614C224.709 115.658 224.726 115.704 224.746 115.76ZM224.972 114.243C224.906 114.267 224.835 114.297 224.765 114.311C224.744 114.318 224.688 114.292 224.688 114.275C224.638 114.04 224.713 113.795 224.911 113.667C224.953 113.641 224.983 113.642 225.009 113.684C225.079 113.814 225.144 113.946 225.216 114.081C225.24 114.13 225.216 114.162 225.17 114.178C225.106 114.195 225.039 114.219 224.972 114.243ZM224.025 114.58C223.963 114.602 223.907 114.623 223.845 114.645C223.785 114.672 223.74 114.659 223.726 114.589C223.696 114.456 223.666 114.324 223.641 114.189C223.629 114.124 223.654 114.098 223.723 114.096C223.939 114.083 224.189 114.229 224.266 114.426C224.273 114.446 224.25 114.495 224.231 114.507C224.161 114.538 224.092 114.557 224.025 114.58Z" fill="#FFD500"/>
<ellipse cx="13.0401" cy="14.2227" rx="13.0401" ry="14.2227" transform="matrix(-0.763263 0.646088 0.649643 0.760239 194.556 148.678)" fill="url(#paint3_radial_148104_93)"/>
<path d="M230.887 177.247C261.634 295.362 227.989 316.634 202.569 294.486C188.541 289.86 194.774 295.36 196.928 282.764C201.624 281.308 196.023 206.799 195.816 191.948C195.609 177.096 200.601 180.08 203.122 183.428C206.024 161.786 210.7 172.014 212.676 179.834C214.372 124.682 225.523 155.129 230.887 177.247Z" fill="#C4C4C4"/>
<path d="M229.075 178.111C259.822 296.225 226.177 317.497 200.757 295.35C186.729 290.724 192.963 296.223 195.116 283.628C199.812 282.172 194.211 207.662 194.004 192.811C193.797 177.96 198.789 180.944 201.311 184.292C204.213 162.649 208.889 172.878 210.864 180.697C212.56 125.546 223.711 155.993 229.075 178.111Z" fill="url(#paint4_linear_148104_93)"/>
<rect x="90" y="263.285" width="222" height="59.9871" fill="url(#paint5_linear_148104_93)"/>
<defs>
<linearGradient id="paint0_linear_148104_93" x1="185.61" y1="305.199" x2="253.968" y2="66.8063" gradientUnits="userSpaceOnUse">
<stop stop-color="#FD41B2"/>
<stop offset="1" stop-color="#FFBDE9"/>
</linearGradient>
<linearGradient id="paint1_linear_148104_93" x1="196.243" y1="263.285" x2="196.243" y2="263.285" gradientUnits="userSpaceOnUse">
<stop stop-color="#F4F4F4"/>
<stop offset="1" stop-color="white"/>
</linearGradient>
<linearGradient id="paint2_linear_148104_93" x1="230.614" y1="292.95" x2="188.22" y2="195.471" gradientUnits="userSpaceOnUse">
<stop stop-color="#F4F4F4"/>
<stop offset="1" stop-color="white"/>
</linearGradient>
<radialGradient id="paint3_radial_148104_93" cx="0" cy="0" r="1" gradientUnits="userSpaceOnUse" gradientTransform="translate(13.0401 14.2227) rotate(90) scale(14.2227 13.0401)">
<stop stop-color="#FFBBBB"/>
<stop offset="1" stop-color="#FFBBBB" stop-opacity="0"/>
</radialGradient>
<linearGradient id="paint4_linear_148104_93" x1="241.304" y1="237.386" x2="191.72" y2="237.518" gradientUnits="userSpaceOnUse">
<stop stop-color="#F4F4F4"/>
<stop offset="1" stop-color="white"/>
</linearGradient>
<linearGradient id="paint5_linear_148104_93" x1="201" y1="263.285" x2="201" y2="323.272" gradientUnits="userSpaceOnUse">
<stop stop-color="#FAFAFA" stop-opacity="0"/>
<stop offset="1" stop-color="white"/>
</linearGradient>
</defs>
</svg>
